<svg width="27" height="34" viewBox="0 0 27 34" fill="none" xmlns="http://www.w3.org/2000/svg">
<path d="M25.3131 11.8146V24.8388L19.4631 20.8223L13.6132 24.8388L7.76327 20.8223L1.91333 24.8388V11.8146C1.91333 8.68117 3.14599 5.67608 5.34015 3.46042C7.5343 1.24475 10.5102 0 13.6132 0C16.7162 0 19.6921 1.24475 21.8863 3.46042C24.0804 5.67608 25.3131 8.68117 25.3131 11.8146V11.8146Z" fill="#0F73EF"/>
<path d="M12.2672 25.8466L7.76329 28.9396L3.25854 25.8466L7.76329 22.7537L12.2672 25.8466Z" fill="#0F73EF"/>
<path d="M18.1173 29.946L13.6134 33.0398L9.10864 29.946L13.6134 26.853L18.1173 29.946Z" fill="#0F73EF"/>
<path d="M23.9677 25.8466L19.463 28.9396L14.9583 25.8466L19.463 22.7537L23.9677 25.8466Z" fill="#0F73EF"/>
</svg>
