<svg width="132" height="34" viewBox="0 0 132 34" fill="none" xmlns="http://www.w3.org/2000/svg">
<path d="M25.3131 11.8146V24.8388L19.4632 20.8223L13.6132 24.8388L7.76327 20.8223L1.91333 24.8388V11.8146C1.91333 8.68117 3.14599 5.67608 5.34015 3.46042C7.5343 1.24475 10.5102 0 13.6132 0C16.7162 0 19.6921 1.24475 21.8863 3.46042C24.0804 5.67608 25.3131 8.68117 25.3131 11.8146Z" fill="#0F73EF"/>
<path d="M12.2672 25.8466L7.76329 28.9396L3.25854 25.8466L7.76329 22.7537L12.2672 25.8466Z" fill="#0F73EF"/>
<path d="M18.1173 29.946L13.6134 33.0398L9.10864 29.946L13.6134 26.853L18.1173 29.946Z" fill="#0F73EF"/>
<path d="M23.9677 25.8466L19.463 28.9396L14.9583 25.8466L19.463 22.7537L23.9677 25.8466Z" fill="#0F73EF"/>
<path d="M41.732 22.716C40.544 22.716 39.506 22.446 38.618 21.906C37.73 21.366 37.04 20.616 36.548 19.656C36.056 18.684 35.81 17.556 35.81 16.272C35.81 14.976 36.062 13.836 36.566 12.852C37.082 11.856 37.808 11.082 38.744 10.53C39.692 9.966 40.814 9.684 42.11 9.684C43.586 9.684 44.81 10.038 45.782 10.746C46.754 11.454 47.384 12.432 47.672 13.68H45.098C44.906 13.092 44.558 12.636 44.054 12.312C43.55 11.976 42.902 11.808 42.11 11.808C40.85 11.808 39.878 12.21 39.194 13.014C38.51 13.806 38.168 14.898 38.168 16.29C38.168 17.682 38.504 18.762 39.176 19.53C39.86 20.286 40.784 20.664 41.948 20.664C43.088 20.664 43.946 20.358 44.522 19.746C45.11 19.122 45.464 18.306 45.584 17.298H42.398V15.57H47.906V22.5H45.782L45.602 20.844C45.194 21.444 44.684 21.906 44.072 22.23C43.46 22.554 42.68 22.716 41.732 22.716ZM50.0919 22.5V9.54H52.3959V14.94C52.6959 14.448 53.0979 14.064 53.6019 13.788C54.1179 13.5 54.7059 13.356 55.3659 13.356C56.4699 13.356 57.3219 13.704 57.9219 14.4C58.5339 15.096 58.8399 16.116 58.8399 17.46V22.5H56.5539V17.676C56.5539 16.908 56.3979 16.32 56.0859 15.912C55.7859 15.504 55.3059 15.3 54.6459 15.3C53.9979 15.3 53.4579 15.528 53.0259 15.984C52.6059 16.44 52.3959 17.076 52.3959 17.892V22.5H50.0919ZM65.327 22.716C64.463 22.716 63.683 22.518 62.987 22.122C62.303 21.726 61.757 21.18 61.349 20.484C60.953 19.776 60.755 18.96 60.755 18.036C60.755 17.112 60.959 16.302 61.367 15.606C61.775 14.898 62.321 14.346 63.005 13.95C63.701 13.554 64.481 13.356 65.345 13.356C66.197 13.356 66.965 13.554 67.649 13.95C68.345 14.346 68.891 14.898 69.287 15.606C69.695 16.302 69.899 17.112 69.899 18.036C69.899 18.96 69.695 19.776 69.287 20.484C68.891 21.18 68.345 21.726 67.649 22.122C66.953 22.518 66.179 22.716 65.327 22.716ZM65.327 20.718C65.927 20.718 66.449 20.496 66.893 20.052C67.337 19.596 67.559 18.924 67.559 18.036C67.559 17.148 67.337 16.482 66.893 16.038C66.449 15.582 65.933 15.354 65.345 15.354C64.733 15.354 64.205 15.582 63.761 16.038C63.329 16.482 63.113 17.148 63.113 18.036C63.113 18.924 63.329 19.596 63.761 20.052C64.205 20.496 64.727 20.718 65.327 20.718ZM75.6491 22.716C74.8571 22.716 74.1611 22.59 73.5611 22.338C72.9611 22.074 72.4811 21.714 72.1211 21.258C71.7611 20.802 71.5451 20.274 71.4731 19.674H73.7951C73.8671 20.022 74.0591 20.322 74.3711 20.574C74.6951 20.814 75.1091 20.934 75.6131 20.934C76.1171 20.934 76.4831 20.832 76.7111 20.628C76.9511 20.424 77.0711 20.19 77.0711 19.926C77.0711 19.542 76.9031 19.284 76.5671 19.152C76.2311 19.008 75.7631 18.87 75.1631 18.738C74.7791 18.654 74.3891 18.552 73.9931 18.432C73.5971 18.312 73.2311 18.162 72.8951 17.982C72.5711 17.79 72.3071 17.55 72.1031 17.262C71.8991 16.962 71.7971 16.596 71.7971 16.164C71.7971 15.372 72.1091 14.706 72.7331 14.166C73.3691 13.626 74.2571 13.356 75.3971 13.356C76.4531 13.356 77.2931 13.602 77.9171 14.094C78.5531 14.586 78.9311 15.264 79.0511 16.128H76.8731C76.7411 15.468 76.2431 15.138 75.3791 15.138C74.9471 15.138 74.6111 15.222 74.3711 15.39C74.1431 15.558 74.0291 15.768 74.0291 16.02C74.0291 16.284 74.2031 16.494 74.5511 16.65C74.8991 16.806 75.3611 16.95 75.9371 17.082C76.5611 17.226 77.1311 17.388 77.6471 17.568C78.1751 17.736 78.5951 17.994 78.9071 18.342C79.2191 18.678 79.3751 19.164 79.3751 19.8C79.3871 20.352 79.2431 20.85 78.9431 21.294C78.6431 21.738 78.2111 22.086 77.6471 22.338C77.0831 22.59 76.4171 22.716 75.6491 22.716ZM85.1128 22.5C84.1768 22.5 83.4268 22.272 82.8628 21.816C82.2988 21.36 82.0168 20.55 82.0168 19.386V15.498H80.4868V13.572H82.0168L82.2868 11.178H84.3208V13.572H86.7328V15.498H84.3208V19.404C84.3208 19.836 84.4108 20.136 84.5908 20.304C84.7828 20.46 85.1068 20.538 85.5628 20.538H86.6788V22.5H85.1128ZM92.5865 22.716C91.7465 22.716 90.9965 22.512 90.3365 22.104C89.6765 21.696 89.1545 21.138 88.7705 20.43C88.3865 19.722 88.1945 18.918 88.1945 18.018C88.1945 17.118 88.3865 16.32 88.7705 15.624C89.1545 14.916 89.6765 14.364 90.3365 13.968C90.9965 13.56 91.7465 13.356 92.5865 13.356C93.2585 13.356 93.8465 13.482 94.3505 13.734C94.8545 13.986 95.2625 14.34 95.5745 14.796V9.54H97.8785V22.5H95.8265L95.5745 21.222C95.2865 21.618 94.9025 21.966 94.4225 22.266C93.9545 22.566 93.3425 22.716 92.5865 22.716ZM93.0725 20.7C93.8165 20.7 94.4225 20.454 94.8905 19.962C95.3705 19.458 95.6105 18.816 95.6105 18.036C95.6105 17.256 95.3705 16.62 94.8905 16.128C94.4225 15.624 93.8165 15.372 93.0725 15.372C92.3405 15.372 91.7345 15.618 91.2545 16.11C90.7745 16.602 90.5345 17.238 90.5345 18.018C90.5345 18.798 90.7745 19.44 91.2545 19.944C91.7345 20.448 92.3405 20.7 93.0725 20.7ZM100.225 22.5V13.572H102.277L102.493 15.246C102.817 14.67 103.255 14.214 103.807 13.878C104.371 13.53 105.031 13.356 105.787 13.356V15.786H105.139C104.635 15.786 104.185 15.864 103.789 16.02C103.393 16.176 103.081 16.446 102.853 16.83C102.637 17.214 102.529 17.748 102.529 18.432V22.5H100.225ZM108.603 12.186C108.183 12.186 107.835 12.06 107.559 11.808C107.295 11.556 107.163 11.238 107.163 10.854C107.163 10.47 107.295 10.158 107.559 9.918C107.835 9.666 108.183 9.54 108.603 9.54C109.023 9.54 109.365 9.666 109.629 9.918C109.905 10.158 110.043 10.47 110.043 10.854C110.043 11.238 109.905 11.556 109.629 11.808C109.365 12.06 109.023 12.186 108.603 12.186ZM107.451 22.5V13.572H109.755V22.5H107.451ZM114.572 22.5L111.296 13.572H113.708L115.976 20.322L118.244 13.572H120.656L117.362 22.5H114.572ZM126.008 22.716C125.108 22.716 124.31 22.524 123.614 22.14C122.918 21.756 122.372 21.216 121.976 20.52C121.58 19.824 121.382 19.02 121.382 18.108C121.382 17.184 121.574 16.362 121.958 15.642C122.354 14.922 122.894 14.364 123.578 13.968C124.274 13.56 125.09 13.356 126.026 13.356C126.902 13.356 127.676 13.548 128.348 13.932C129.02 14.316 129.542 14.844 129.914 15.516C130.298 16.176 130.49 16.914 130.49 17.73C130.49 17.862 130.484 18 130.472 18.144C130.472 18.288 130.466 18.438 130.454 18.594H123.668C123.716 19.29 123.956 19.836 124.388 20.232C124.832 20.628 125.366 20.826 125.99 20.826C126.458 20.826 126.848 20.724 127.16 20.52C127.484 20.304 127.724 20.028 127.88 19.692H130.22C130.052 20.256 129.77 20.772 129.374 21.24C128.99 21.696 128.51 22.056 127.934 22.32C127.37 22.584 126.728 22.716 126.008 22.716ZM126.026 15.228C125.462 15.228 124.964 15.39 124.532 15.714C124.1 16.026 123.824 16.506 123.704 17.154H128.15C128.114 16.566 127.898 16.098 127.502 15.75C127.106 15.402 126.614 15.228 126.026 15.228Z" fill="#23262F"/>
</svg>
