<svg width="49" height="34" viewBox="0 0 49 34" fill="none" xmlns="http://www.w3.org/2000/svg">
<rect width="49" height="28" rx="4" fill="#141416"/>
<path d="M11.78 18.144C11.188 18.144 10.676 18.04 10.244 17.832C9.812 17.616 9.468 17.324 9.212 16.956C8.964 16.58 8.812 16.156 8.756 15.684H10.004C10.084 16.084 10.284 16.416 10.604 16.68C10.924 16.936 11.32 17.064 11.792 17.064C12.144 17.064 12.448 16.98 12.704 16.812C12.96 16.636 13.16 16.404 13.304 16.116C13.448 15.828 13.52 15.504 13.52 15.144C13.52 14.576 13.36 14.124 13.04 13.788C12.72 13.444 12.316 13.272 11.828 13.272C11.412 13.272 11.056 13.372 10.76 13.572C10.464 13.764 10.248 14.008 10.112 14.304H8.9L9.62 9.6H14.156V10.716H10.58L10.148 12.96C10.332 12.752 10.584 12.58 10.904 12.444C11.232 12.3 11.6 12.228 12.008 12.228C12.576 12.228 13.064 12.36 13.472 12.624C13.88 12.88 14.192 13.228 14.408 13.668C14.632 14.108 14.744 14.596 14.744 15.132C14.744 15.692 14.624 16.2 14.384 16.656C14.144 17.112 13.8 17.476 13.352 17.748C12.912 18.012 12.388 18.144 11.78 18.144ZM19.27 18V9.6H24.61V10.632H20.542V13.248H24.25V14.256H20.542V16.968H24.61V18H19.27ZM28.0934 18V10.632H25.6094V9.6H31.8374V10.632H29.3654V18H28.0934ZM33.0278 18V9.6H34.2998V13.2H38.3678V9.6H39.6398V18H38.3678V14.244H34.2998V18H33.0278Z" fill="#111111"/>
<path d="M21.6716 31.1716L18.5 28H30.5L27.3284 31.1716C25.7663 32.7337 23.2337 32.7337 21.6716 31.1716Z" fill="#141416"/>
</svg>
